<svg xmlns="http://www.w3.org/2000/svg" width="11.246" height="16.958" viewBox="0 0 11.246 16.958">
  <g id="그룹_91" data-name="그룹 91" transform="translate(141.925 -1885.298)">
    <path id="패스_10" data-name="패스 10" d="M-141.283,1888.656c-.348,1.625-.039,3.991,1.172,6.921s2.662,4.824,4.056,5.729a3.492,3.492,0,0,0,3.551,0l.659-.272a.989.989,0,0,0,.536-1.292l-.825-2a.917.917,0,0,0-1.2-.5l-.726.3a1.217,1.217,0,0,0-.475.351h0s-.752.894-1.631.483c-.948-.443-1.789-2.092-2.355-3.461s-1.134-3.132-.776-4.114c.332-.911,1.5-.809,1.5-.809h0a1.217,1.217,0,0,0,.584-.087l.726-.3a.917.917,0,0,0,.5-1.2l-.825-2a.989.989,0,0,0-1.292-.536l-.659.272A3.493,3.493,0,0,0-141.283,1888.656Z" fill="none" stroke="#888" stroke-linecap="round" stroke-linejoin="round" stroke-width="1"/>
    <line id="선_57" data-name="선 57" x2="1.553" y2="3.757" transform="translate(-134.056 1897.545)" fill="none" stroke="#888" stroke-linecap="round" stroke-linejoin="round" stroke-width="1"/>
    <line id="선_58" data-name="선 58" x2="1.553" y2="3.757" transform="translate(-138.765 1886.151)" fill="none" stroke="#888" stroke-linecap="round" stroke-linejoin="round" stroke-width="1"/>
  </g>
</svg>
