<svg xmlns="http://www.w3.org/2000/svg" width="136.186" height="27.79" viewBox="0 0 136.186 27.79">
  <path id="패스_6" data-name="패스 6" d="M233.512,127.029a10.759,10.759,0,0,0-6.762-4.477H99.777v27.33h17.856l.656-1.837h0l2.444-6.849.65-1.8h10.6l.613,1.8,2.443,6.849h0l.656,1.837h4.425V127.029h1.089l16.324,22.853h1.914V127.029h4.168a16.787,16.787,0,0,0-2.347,9c0,8.611,4.745,14.236,11.9,14.236,6.391,0,11.022-4.477,11.022-11.749v-1.76H173.668v1.8h8.572c-.077,6.123-3.789,9.8-9.07,9.8-5.893,0-9.95-4.745-9.95-12.323a14.176,14.176,0,0,1,2.727-9h20.221v13.477c0,5.665,4.287,9.836,10.333,9.836s10.333-4.171,10.333-9.836V127.029h3.122v22.853h1.99V127.029h3.122v22.853h7.845c8.266,0,13.011-5.166,13.05-13.93A15.517,15.517,0,0,0,233.512,127.029ZM116.19,148.045H101.767V127.029h22Zm21.941,0h-.995l-7.605-21.016h8.6Z" transform="translate(-99.777 -122.552)" fill="#888"/>
</svg>
