<svg id="Layer_2" data-name="Layer 2" xmlns="http://www.w3.org/2000/svg" width="484.606" height="98.985" viewBox="0 0 484.606 98.985">
  <g id="Layer_1" data-name="Layer 1" transform="translate(0 0)">
    <path id="패스_6" data-name="패스 6" d="M475.849,15.917A38.225,38.225,0,0,0,451.786,0H0V97.255H63.542l2.331-6.542h0l8.7-24.389,2.306-6.392h37.6l2.181,6.392,8.7,24.389h0l2.482,6.542h15.741V15.917h3.885L205.54,97.255h6.768V15.917h14.839A59.932,59.932,0,0,0,218.8,47.951c0,30.63,16.894,50.658,42.336,50.658,22.76,0,39.228-15.942,39.228-41.81V50.533H262.915v6.417H293.42c-.276,21.782-13.485,34.841-32.285,34.841-20.955,0-35.393-16.869-35.393-43.84,0-13.51,3.609-24.439,9.7-32.034h71.964V63.893c0,20.053,15.24,35.092,36.746,35.092S381,84.046,381,63.893V15.917h11.1V97.255H399.2V15.917h11.1V97.255H438.15c29.4,0,46.3-18.4,46.422-49.58a55.145,55.145,0,0,0-8.723-31.758ZM58.4,90.713H7.069v-74.8H85.349Zm78.08,0h-3.635l-26.971-74.8h30.605Z" transform="translate(0 0)" fill="#fff"/>
  </g>
</svg>
